<svg width="1784" height="1485" viewBox="0 0 1784 1485" fill="none" xmlns="http://www.w3.org/2000/svg">
<path id="Vector" d="M1751.14 303.228L1407.06 131.419C1364.31 53.7555 1257.79 0 1129.87 0C963.137 0 832.533 91.3249 832.533 207.894C832.55 224.372 835.21 240.741 840.413 256.378L695.314 328.844C644.71 307.32 590.199 296.475 535.2 296.992C368.47 296.992 237.867 388.316 237.867 504.886C237.883 521.364 240.543 537.732 245.746 553.369L32.8553 659.618C22.9756 664.556 14.6683 672.146 8.86511 681.536C3.06187 690.926 -0.00789423 701.745 1.52459e-05 712.78V1187.97C-0.00789423 1199 3.06187 1209.82 8.86511 1219.21C14.6683 1228.6 22.9756 1236.19 32.8553 1241.13L508.589 1478.72C516.85 1482.85 525.962 1485 535.2 1485C544.438 1485 553.55 1482.85 561.811 1478.72L1751.14 884.738C1761.02 879.8 1769.33 872.21 1775.13 862.82C1780.94 853.43 1784.01 842.611 1784 831.576V356.39C1784.01 345.355 1780.94 334.536 1775.13 325.146C1769.33 315.756 1761.02 308.166 1751.14 303.228ZM535.2 883.995L192.449 712.78L319.633 649.298C373.451 688.575 449.568 712.78 535.2 712.78C701.93 712.78 832.533 621.455 832.533 504.886C832.251 470.378 820.92 436.866 800.198 409.254L914.3 352.306C968.117 391.583 1044.23 415.788 1129.87 415.788C1266.49 415.788 1378.81 354.459 1414.94 268.183L1591.55 356.39L535.2 883.995ZM1129.87 118.797C1232 118.797 1308.27 165.87 1308.27 207.894C1308.27 249.918 1232 296.992 1129.87 296.992C1027.73 296.992 951.467 249.918 951.467 207.894C951.467 165.87 1027.73 118.797 1129.87 118.797ZM535.2 415.788C637.334 415.788 713.6 462.861 713.6 504.886C713.6 546.91 637.334 593.983 535.2 593.983C463.32 593.983 404.299 570.669 375.606 542.009C373.702 539.554 371.615 537.245 369.362 535.104C361.843 526.76 357.409 516.096 356.8 504.886C356.8 462.861 433.066 415.788 535.2 415.788ZM118.933 808.856L475.733 987.051V1329.48L118.933 1151.29V808.856ZM594.667 1329.48V987.051L1665.07 452.467V794.898L594.667 1329.48Z" fill="none" stroke="#F0EBE1" stroke-width="6"/>
</svg>
