<svg id="visual" viewBox="0 0 900 600" width="900" height="600" xmlns="http://www.w3.org/2000/svg" xmlns:xlink="http://www.w3.org/1999/xlink" version="1.1"><path d="M0 399L16.7 401.5C33.3 404 66.7 409 100 419.3C133.3 429.7 166.7 445.3 200 453.8C233.3 462.3 266.7 463.7 300 463.8C333.3 464 366.7 463 400 452.2C433.3 441.3 466.7 420.7 500 409.8C533.3 399 566.7 398 600 410.5C633.3 423 666.7 449 700 450.5C733.3 452 766.7 429 800 430.3C833.3 431.7 866.7 457.3 883.3 470.2L900 483L900 601L883.3 601C866.7 601 833.3 601 800 601C766.7 601 733.3 601 700 601C666.7 601 633.3 601 600 601C566.7 601 533.3 601 500 601C466.7 601 433.3 601 400 601C366.7 601 333.3 601 300 601C266.7 601 233.3 601 200 601C166.7 601 133.3 601 100 601C66.7 601 33.3 601 16.7 601L0 601Z" fill="#1a1814"></path><path d="M0 464L16.7 467.7C33.3 471.3 66.7 478.7 100 486C133.3 493.3 166.7 500.7 200 498.2C233.3 495.7 266.7 483.3 300 475.5C333.3 467.7 366.7 464.3 400 459.7C433.3 455 466.7 449 500 456C533.3 463 566.7 483 600 480.7C633.3 478.3 666.7 453.7 700 442C733.3 430.3 766.7 431.7 800 441.2C833.3 450.7 866.7 468.3 883.3 477.2L900 486L900 601L883.3 601C866.7 601 833.3 601 800 601C766.7 601 733.3 601 700 601C666.7 601 633.3 601 600 601C566.7 601 533.3 601 500 601C466.7 601 433.3 601 400 601C366.7 601 333.3 601 300 601C266.7 601 233.3 601 200 601C166.7 601 133.3 601 100 601C66.7 601 33.3 601 16.7 601L0 601Z" fill="#44321d"></path><path d="M0 474L16.7 479.8C33.3 485.7 66.7 497.3 100 497.5C133.3 497.7 166.7 486.3 200 487.8C233.3 489.3 266.7 503.7 300 505.3C333.3 507 366.7 496 400 493.8C433.3 491.7 466.7 498.3 500 503.5C533.3 508.7 566.7 512.3 600 511.3C633.3 510.3 666.7 504.7 700 498C733.3 491.3 766.7 483.7 800 481C833.3 478.3 866.7 480.7 883.3 481.8L900 483L900 601L883.3 601C866.7 601 833.3 601 800 601C766.7 601 733.3 601 700 601C666.7 601 633.3 601 600 601C566.7 601 533.3 601 500 601C466.7 601 433.3 601 400 601C366.7 601 333.3 601 300 601C266.7 601 233.3 601 200 601C166.7 601 133.3 601 100 601C66.7 601 33.3 601 16.7 601L0 601Z" fill="#784b2a"></path><path d="M0 548L16.7 540C33.3 532 66.7 516 100 508.8C133.3 501.7 166.7 503.3 200 505.5C233.3 507.7 266.7 510.3 300 515.2C333.3 520 366.7 527 400 529.5C433.3 532 466.7 530 500 532.7C533.3 535.3 566.7 542.7 600 540.8C633.3 539 666.7 528 700 527.3C733.3 526.7 766.7 536.3 800 539.8C833.3 543.3 866.7 540.7 883.3 539.3L900 538L900 601L883.3 601C866.7 601 833.3 601 800 601C766.7 601 733.3 601 700 601C666.7 601 633.3 601 600 601C566.7 601 533.3 601 500 601C466.7 601 433.3 601 400 601C366.7 601 333.3 601 300 601C266.7 601 233.3 601 200 601C166.7 601 133.3 601 100 601C66.7 601 33.3 601 16.7 601L0 601Z" fill="#b66042"></path><path d="M0 549L16.7 553.8C33.3 558.7 66.7 568.3 100 573.5C133.3 578.7 166.7 579.3 200 576.5C233.3 573.7 266.7 567.3 300 560.2C333.3 553 366.7 545 400 545C433.3 545 466.7 553 500 553C533.3 553 566.7 545 600 544C633.3 543 666.7 549 700 552.8C733.3 556.7 766.7 558.3 800 561.2C833.3 564 866.7 568 883.3 570L900 572L900 601L883.3 601C866.7 601 833.3 601 800 601C766.7 601 733.3 601 700 601C666.7 601 633.3 601 600 601C566.7 601 533.3 601 500 601C466.7 601 433.3 601 400 601C366.7 601 333.3 601 300 601C266.7 601 233.3 601 200 601C166.7 601 133.3 601 100 601C66.7 601 33.3 601 16.7 601L0 601Z" fill="#fa7268"></path></svg>