<svg id="visual" viewBox="0 0 900 600" width="900" height="600" xmlns="http://www.w3.org/2000/svg" xmlns:xlink="http://www.w3.org/1999/xlink" version="1.1"><path d="M0 481L18.8 486.5C37.7 492 75.3 503 112.8 502.5C150.3 502 187.7 490 225.2 488.2C262.7 486.3 300.3 494.7 337.8 500C375.3 505.3 412.7 507.7 450.2 508.3C487.7 509 525.3 508 562.8 502.2C600.3 496.3 637.7 485.7 675.2 479.8C712.7 474 750.3 473 787.8 480.3C825.3 487.7 862.7 503.3 881.3 511.2L900 519L900 601L881.3 601C862.7 601 825.3 601 787.8 601C750.3 601 712.7 601 675.2 601C637.7 601 600.3 601 562.8 601C525.3 601 487.7 601 450.2 601C412.7 601 375.3 601 337.8 601C300.3 601 262.7 601 225.2 601C187.7 601 150.3 601 112.8 601C75.3 601 37.7 601 18.8 601L0 601Z" fill="#ff6b6b"></path><path d="M0 474L18.8 474.2C37.7 474.3 75.3 474.7 112.8 482.7C150.3 490.7 187.7 506.3 225.2 511.5C262.7 516.7 300.3 511.3 337.8 501C375.3 490.7 412.7 475.3 450.2 477.3C487.7 479.3 525.3 498.7 562.8 505.5C600.3 512.3 637.7 506.7 675.2 506.8C712.7 507 750.3 513 787.8 512.5C825.3 512 862.7 505 881.3 501.5L900 498L900 601L881.3 601C862.7 601 825.3 601 787.8 601C750.3 601 712.7 601 675.2 601C637.7 601 600.3 601 562.8 601C525.3 601 487.7 601 450.2 601C412.7 601 375.3 601 337.8 601C300.3 601 262.7 601 225.2 601C187.7 601 150.3 601 112.8 601C75.3 601 37.7 601 18.8 601L0 601Z" fill="#fa6464"></path><path d="M0 497L18.8 501.7C37.7 506.3 75.3 515.7 112.8 519.3C150.3 523 187.7 521 225.2 518.3C262.7 515.7 300.3 512.3 337.8 514.8C375.3 517.3 412.7 525.7 450.2 530C487.7 534.3 525.3 534.7 562.8 530C600.3 525.3 637.7 515.7 675.2 516.3C712.7 517 750.3 528 787.8 529.2C825.3 530.3 862.7 521.7 881.3 517.3L900 513L900 601L881.3 601C862.7 601 825.3 601 787.8 601C750.3 601 712.7 601 675.2 601C637.7 601 600.3 601 562.8 601C525.3 601 487.7 601 450.2 601C412.7 601 375.3 601 337.8 601C300.3 601 262.7 601 225.2 601C187.7 601 150.3 601 112.8 601C75.3 601 37.7 601 18.8 601L0 601Z" fill="#f55d5c"></path><path d="M0 545L18.8 540C37.7 535 75.3 525 112.8 526C150.3 527 187.7 539 225.2 535.7C262.7 532.3 300.3 513.7 337.8 514.3C375.3 515 412.7 535 450.2 545C487.7 555 525.3 555 562.8 555C600.3 555 637.7 555 675.2 548.5C712.7 542 750.3 529 787.8 522.8C825.3 516.7 862.7 517.3 881.3 517.7L900 518L900 601L881.3 601C862.7 601 825.3 601 787.8 601C750.3 601 712.7 601 675.2 601C637.7 601 600.3 601 562.8 601C525.3 601 487.7 601 450.2 601C412.7 601 375.3 601 337.8 601C300.3 601 262.7 601 225.2 601C187.7 601 150.3 601 112.8 601C75.3 601 37.7 601 18.8 601L0 601Z" fill="#f05655"></path><path d="M0 540L18.8 537.2C37.7 534.3 75.3 528.7 112.8 530.3C150.3 532 187.7 541 225.2 542.5C262.7 544 300.3 538 337.8 539.2C375.3 540.3 412.7 548.7 450.2 552.2C487.7 555.7 525.3 554.3 562.8 547.5C600.3 540.7 637.7 528.3 675.2 522.5C712.7 516.7 750.3 517.3 787.8 523C825.3 528.7 862.7 539.3 881.3 544.7L900 550L900 601L881.3 601C862.7 601 825.3 601 787.8 601C750.3 601 712.7 601 675.2 601C637.7 601 600.3 601 562.8 601C525.3 601 487.7 601 450.2 601C412.7 601 375.3 601 337.8 601C300.3 601 262.7 601 225.2 601C187.7 601 150.3 601 112.8 601C75.3 601 37.7 601 18.8 601L0 601Z" fill="#eb4f4e"></path><path d="M0 570L18.8 568.3C37.7 566.7 75.3 563.3 112.8 561C150.3 558.7 187.7 557.3 225.2 555C262.7 552.7 300.3 549.3 337.8 551C375.3 552.7 412.7 559.3 450.2 564.3C487.7 569.3 525.3 572.7 562.8 567.8C600.3 563 637.7 550 675.2 545.8C712.7 541.7 750.3 546.3 787.8 550.7C825.3 555 862.7 559 881.3 561L900 563L900 601L881.3 601C862.7 601 825.3 601 787.8 601C750.3 601 712.7 601 675.2 601C637.7 601 600.3 601 562.8 601C525.3 601 487.7 601 450.2 601C412.7 601 375.3 601 337.8 601C300.3 601 262.7 601 225.2 601C187.7 601 150.3 601 112.8 601C75.3 601 37.7 601 18.8 601L0 601Z" fill="#e54847"></path><path d="M0 559L18.8 564.5C37.7 570 75.3 581 112.8 584.2C150.3 587.3 187.7 582.7 225.2 580.7C262.7 578.7 300.3 579.3 337.8 576.3C375.3 573.3 412.7 566.7 450.2 567C487.7 567.3 525.3 574.7 562.8 576.8C600.3 579 637.7 576 675.2 572.5C712.7 569 750.3 565 787.8 563.5C825.3 562 862.7 563 881.3 563.5L900 564L900 601L881.3 601C862.7 601 825.3 601 787.8 601C750.3 601 712.7 601 675.2 601C637.7 601 600.3 601 562.8 601C525.3 601 487.7 601 450.2 601C412.7 601 375.3 601 337.8 601C300.3 601 262.7 601 225.2 601C187.7 601 150.3 601 112.8 601C75.3 601 37.7 601 18.8 601L0 601Z" fill="#e04040"></path></svg>